<svg width="50" height="51" viewBox="0 0 50 51" fill="none" xmlns="http://www.w3.org/2000/svg">
<g filter="url(#filter0_d_2_78)">
<path d="M9.1598 8.87325H23.1442V24.0163H7.66755V10.3328C7.66755 9.3793 8.18505 8.87325 9.1598 8.87325ZM24.5611 8.87325H38.5448C39.5196 8.87325 40.0371 9.3793 40.0371 10.3328V24.0163H24.5611V8.87325ZM7.66755 25.4026H23.1442V40.545H9.1598C8.18505 40.545 7.66755 40.0387 7.66755 39.0852V25.4026ZM24.5611 25.4026H40.0371V39.0852C40.0371 40.0387 39.5196 40.545 38.5448 40.545H24.5611V25.4026Z" fill="url(#paint0_linear_2_78)" fill-opacity="0.3" shape-rendering="crispEdges"/>
<path d="M9.1598 8.92932H23.0882V23.9602H7.72363V10.3328C7.72363 9.86588 7.85018 9.51752 8.08736 9.28555C8.32474 9.05338 8.6816 8.92932 9.1598 8.92932ZM24.6172 8.92932H38.5448C39.023 8.92932 39.3799 9.05338 39.6173 9.28555C39.8545 9.51752 39.981 9.86588 39.981 10.3328V23.9602H24.6172V8.92932ZM7.72363 25.4587H23.0882V40.4889H9.1598C8.68161 40.4889 8.32474 40.3648 8.08736 40.1326C7.85018 39.9006 7.72363 39.5522 7.72363 39.0852V25.4587ZM24.6172 25.4587H39.981V39.0852C39.981 39.5522 39.8545 39.9006 39.6173 40.1326C39.3799 40.3648 39.023 40.4889 38.5448 40.4889H24.6172V25.4587Z" stroke="#6DBED2" stroke-opacity="0.5" stroke-width="0.112152" shape-rendering="crispEdges"/>
</g>
<path d="M9.1598 8.87325H23.1442V24.0163H7.66755V10.3328C7.66755 9.3793 8.18505 8.87325 9.1598 8.87325ZM24.5611 8.87325H38.5448C39.5196 8.87325 40.0371 9.3793 40.0371 10.3328V24.0163H24.5611V8.87325ZM7.66755 25.4026H23.1442V40.545H9.1598C8.18505 40.545 7.66755 40.0387 7.66755 39.0852V25.4026ZM24.5611 25.4026H40.0371V39.0852C40.0371 40.0387 39.5196 40.545 38.5448 40.545H24.5611V25.4026Z" fill="url(#paint1_linear_2_78)" fill-opacity="0.4"/>
<path d="M23.2003 8.87325V8.81717H23.1442H9.1598C8.66326 8.81717 8.27399 8.94614 8.00894 9.20537C7.74368 9.46481 7.61148 9.84623 7.61148 10.3328V24.0163V24.0724H7.66755H23.1442H23.2003V24.0163V8.87325ZM24.5611 8.81717H24.505V8.87325V24.0163V24.0724H24.5611H40.0371H40.0932V24.0163V10.3328C40.0932 9.84623 39.961 9.46481 39.6957 9.20537C39.4306 8.94614 39.0414 8.81717 38.5448 8.81717H24.5611ZM7.66755 25.3465H7.61148V25.4026V39.0852C7.61148 39.5718 7.74368 39.9533 8.00893 40.2127C8.27399 40.472 8.66325 40.601 9.1598 40.601H23.1442H23.2003V40.545V25.4026V25.3465H23.1442H7.66755ZM24.5611 25.3465H24.505V25.4026V40.545V40.601H24.5611H38.5448C39.0414 40.601 39.4306 40.472 39.6957 40.2127C39.961 39.9533 40.0932 39.5718 40.0932 39.0852V25.4026V25.3465H40.0371H24.5611Z" stroke="#255180" stroke-opacity="0.17" stroke-width="0.112152"/>
<g opacity="0.12" filter="url(#filter1_f_2_78)">
<path d="M7.41535 9.78868H8.57779V23.7342H7.41535V9.78868Z" fill="url(#paint2_linear_2_78)"/>
<path d="M22.2338 9.78868H23.3963V23.7342H22.2338V9.78868Z" fill="url(#paint3_linear_2_78)"/>
<path d="M8.57759 8.67129H22.2362V9.78879H8.57759V8.67129Z" fill="url(#paint4_linear_2_78)"/>
<path d="M8.57759 23.7341H22.2362V24.0135H8.57759V23.7341Z" fill="url(#paint5_linear_2_78)"/>
<rect x="7.41523" y="8.67134" width="1.16244" height="1.1175" fill="url(#paint6_radial_2_78)"/>
<rect x="22.2338" y="8.67129" width="1.16244" height="1.1175" fill="url(#paint7_radial_2_78)"/>
<rect x="22.2338" y="23.7341" width="1.16244" height="0.279376" fill="url(#paint8_radial_2_78)"/>
<rect x="7.41535" y="23.7341" width="1.16244" height="0.279376" fill="url(#paint9_radial_2_78)"/>
</g>
<g opacity="0.12" filter="url(#filter2_f_2_78)">
<path d="M24.2978 9.8336H25.4602V23.7791H24.2978V9.8336Z" fill="url(#paint10_linear_2_78)"/>
<path d="M39.1163 9.8336H40.2787V23.7791H39.1163V9.8336Z" fill="url(#paint11_linear_2_78)"/>
<path d="M25.46 8.71621H39.1187V9.83371H25.46V8.71621Z" fill="url(#paint12_linear_2_78)"/>
<path d="M25.46 23.7791H39.1187V24.0584H25.46V23.7791Z" fill="url(#paint13_linear_2_78)"/>
<rect x="24.2978" y="8.71621" width="1.16244" height="1.1175" fill="url(#paint14_radial_2_78)"/>
<rect x="39.1163" y="8.71621" width="1.16244" height="1.1175" fill="url(#paint15_radial_2_78)"/>
<rect x="39.1163" y="23.7791" width="1.16244" height="0.279376" fill="url(#paint16_radial_2_78)"/>
<rect x="24.2978" y="23.7791" width="1.16244" height="0.279376" fill="url(#paint17_radial_2_78)"/>
</g>
<g opacity="0.08" filter="url(#filter3_f_2_78)">
<path d="M24.2978 26.3194H25.4602V40.2649H24.2978V26.3194Z" fill="url(#paint18_linear_2_78)"/>
<path d="M39.1163 26.3194H40.2787V40.2649H39.1163V26.3194Z" fill="url(#paint19_linear_2_78)"/>
<path d="M25.46 25.202H39.1187V26.3195H25.46V25.202Z" fill="url(#paint20_linear_2_78)"/>
<path d="M25.46 40.2648H39.1187V40.5442H25.46V40.2648Z" fill="url(#paint21_linear_2_78)"/>
<rect x="24.2978" y="25.202" width="1.16244" height="1.1175" fill="url(#paint22_radial_2_78)"/>
<rect x="39.1163" y="25.202" width="1.16244" height="1.1175" fill="url(#paint23_radial_2_78)"/>
<rect x="39.1163" y="40.2648" width="1.16244" height="0.279376" fill="url(#paint24_radial_2_78)"/>
<rect x="24.2978" y="40.2648" width="1.16244" height="0.279376" fill="url(#paint25_radial_2_78)"/>
</g>
<g opacity="0.08" filter="url(#filter4_f_2_78)">
<path d="M7.41535 26.3645H8.57779V40.31H7.41535V26.3645Z" fill="url(#paint26_linear_2_78)"/>
<path d="M22.2338 26.3645H23.3963V40.31H22.2338V26.3645Z" fill="url(#paint27_linear_2_78)"/>
<path d="M8.57759 25.2471H22.2362V26.3646H8.57759V25.2471Z" fill="url(#paint28_linear_2_78)"/>
<path d="M8.57759 40.31H22.2362V40.5894H8.57759V40.31Z" fill="url(#paint29_linear_2_78)"/>
<rect x="7.41523" y="25.2472" width="1.16244" height="1.1175" fill="url(#paint30_radial_2_78)"/>
<rect x="22.2338" y="25.2471" width="1.16244" height="1.1175" fill="url(#paint31_radial_2_78)"/>
<rect x="22.2338" y="40.31" width="1.16244" height="0.279376" fill="url(#paint32_radial_2_78)"/>
<rect x="7.41535" y="40.31" width="1.16244" height="0.279376" fill="url(#paint33_radial_2_78)"/>
</g>
<g filter="url(#filter5_bd_2_78)">
<path d="M44.1533 14.5612C44.2834 13.9325 45.3878 13.075 46.2439 9.322C46.4769 7.68123 46.8656 -1.05495 35.2717 1.62907C19.7191 5.20936 11.3052 17.6192 9.96397 19.3396C7.41973 22.6163 -0.102676 35.2332 2.07163 42.8747C3.34177 47.3389 7.96599 47.2698 11.5583 46.4708C15.1505 45.6717 18.5798 42.8092 18.5798 42.8092C18.5798 42.8092 17.167 44.1924 11.2942 45.2427C5.42144 46.293 4.45385 41.8235 5.19824 38.3149C6.10865 33.9346 9.18764 26.7083 19.3748 16.4303C28.4122 7.30351 38.0851 2.12649 43.2124 4.52418C45.9387 5.79096 45.5411 8.6672 44.9952 10.8589L44.1533 14.5612Z" fill="url(#paint34_linear_2_78)" fill-opacity="0.4" shape-rendering="crispEdges"/>
<path d="M44.1533 14.5612C44.2834 13.9325 45.3878 13.075 46.2439 9.322C46.4769 7.68123 46.8656 -1.05495 35.2717 1.62907C19.7191 5.20936 11.3052 17.6192 9.96397 19.3396C7.41973 22.6163 -0.102676 35.2332 2.07163 42.8747C3.34177 47.3389 7.96599 47.2698 11.5583 46.4708C15.1505 45.6717 18.5798 42.8092 18.5798 42.8092C18.5798 42.8092 17.167 44.1924 11.2942 45.2427C5.42144 46.293 4.45385 41.8235 5.19824 38.3149C6.10865 33.9346 9.18764 26.7083 19.3748 16.4303C28.4122 7.30351 38.0851 2.12649 43.2124 4.52418C45.9387 5.79096 45.5411 8.6672 44.9952 10.8589L44.1533 14.5612Z" fill="white" fill-opacity="0.1" shape-rendering="crispEdges"/>
<path d="M44.417 13.8262C44.4146 13.8302 44.4122 13.8342 44.4098 13.8382L45.0822 10.8807C45.0823 10.8803 45.0824 10.88 45.0825 10.8797C45.3557 9.78255 45.5955 8.50118 45.4196 7.33142C45.2426 6.15468 44.6445 5.09077 43.2504 4.44291C40.6467 3.22536 36.9127 3.93778 32.7191 6.07561C28.5194 8.21652 23.8343 11.7991 19.311 16.3671C9.11581 26.6533 6.02542 33.8943 5.11044 38.2964C4.73604 40.0612 4.7882 42.0829 5.68854 43.5356C6.14011 44.2642 6.80412 44.8477 7.72909 45.1811C8.65274 45.514 9.83106 45.5955 11.3101 45.331C14.2517 44.8049 16.0802 44.1948 17.1754 43.7142C17.2078 43.7 17.2396 43.6859 17.2707 43.6719C17.0037 43.8561 16.7007 44.0569 16.3686 44.2642C15.0659 45.0775 13.3205 45.9868 11.5387 46.3832C9.74743 46.7816 7.70956 46.9953 5.96584 46.5594C4.22897 46.1253 2.78309 45.0475 2.15792 42.8502L2.07171 42.8746L2.15792 42.8502C1.6196 40.9582 1.68009 38.7523 2.11788 36.4512C2.55553 34.1508 3.36907 31.7613 4.33088 29.5056C6.25487 24.9933 8.76769 21.0266 10.0349 19.3946C10.1184 19.2875 10.2292 19.1391 10.3673 18.9542C12.4505 16.165 20.7396 5.06651 35.2919 1.7165L35.292 1.71647C38.181 1.04767 40.314 1.09262 41.8848 1.55412C43.4535 2.01498 44.4671 2.89278 45.1175 3.90229C46.4205 5.92505 46.2711 8.4874 46.1556 9.30562C45.7294 11.1728 45.2422 12.3171 44.8469 13.0715C44.6854 13.3796 44.5392 13.6228 44.417 13.8262Z" stroke="black" stroke-opacity="0.08" stroke-width="0.179443" shape-rendering="crispEdges"/>
</g>
<defs>
<filter id="filter0_d_2_78" x="5.34152" y="6.9061" width="37.0216" height="36.3238" filterUnits="userSpaceOnUse" color-interpolation-filters="sRGB">
<feFlood flood-opacity="0" result="BackgroundImageFix"/>
<feColorMatrix in="SourceAlpha" type="matrix" values="0 0 0 0 0 0 0 0 0 0 0 0 0 0 0 0 0 0 127 0" result="hardAlpha"/>
<feOffset dy="0.358886"/>
<feGaussianBlur stdDeviation="1.16302"/>
<feComposite in2="hardAlpha" operator="out"/>
<feColorMatrix type="matrix" values="0 0 0 0 0 0 0 0 0 0 0 0 0 0 0 0 0 0 0.1 0"/>
<feBlend mode="normal" in2="BackgroundImageFix" result="effect1_dropShadow_2_78"/>
<feBlend mode="normal" in="SourceGraphic" in2="effect1_dropShadow_2_78" result="shape"/>
</filter>
<filter id="filter1_f_2_78" x="7.14606" y="8.40212" width="16.5194" height="15.8806" filterUnits="userSpaceOnUse" color-interpolation-filters="sRGB">
<feFlood flood-opacity="0" result="BackgroundImageFix"/>
<feBlend mode="normal" in="SourceGraphic" in2="BackgroundImageFix" result="shape"/>
<feGaussianBlur stdDeviation="0.134582" result="effect1_foregroundBlur_2_78"/>
</filter>
<filter id="filter2_f_2_78" x="24.0286" y="8.44704" width="16.5193" height="15.8806" filterUnits="userSpaceOnUse" color-interpolation-filters="sRGB">
<feFlood flood-opacity="0" result="BackgroundImageFix"/>
<feBlend mode="normal" in="SourceGraphic" in2="BackgroundImageFix" result="shape"/>
<feGaussianBlur stdDeviation="0.134582" result="effect1_foregroundBlur_2_78"/>
</filter>
<filter id="filter3_f_2_78" x="24.0286" y="24.9328" width="16.5193" height="15.8806" filterUnits="userSpaceOnUse" color-interpolation-filters="sRGB">
<feFlood flood-opacity="0" result="BackgroundImageFix"/>
<feBlend mode="normal" in="SourceGraphic" in2="BackgroundImageFix" result="shape"/>
<feGaussianBlur stdDeviation="0.134582" result="effect1_foregroundBlur_2_78"/>
</filter>
<filter id="filter4_f_2_78" x="7.14606" y="24.978" width="16.5194" height="15.8806" filterUnits="userSpaceOnUse" color-interpolation-filters="sRGB">
<feFlood flood-opacity="0" result="BackgroundImageFix"/>
<feBlend mode="normal" in="SourceGraphic" in2="BackgroundImageFix" result="shape"/>
<feGaussianBlur stdDeviation="0.134582" result="effect1_foregroundBlur_2_78"/>
</filter>
<filter id="filter5_bd_2_78" x="0.134397" y="-0.427136" width="49.4139" height="51.0184" filterUnits="userSpaceOnUse" color-interpolation-filters="sRGB">
<feFlood flood-opacity="0" result="BackgroundImageFix"/>
<feGaussianBlur in="BackgroundImageFix" stdDeviation="0.773849"/>
<feComposite in2="SourceAlpha" operator="in" result="effect1_backgroundBlur_2_78"/>
<feColorMatrix in="SourceAlpha" type="matrix" values="0 0 0 0 0 0 0 0 0 0 0 0 0 0 0 0 0 0 127 0" result="hardAlpha"/>
<feOffset dx="0.986938" dy="1.45798"/>
<feGaussianBlur stdDeviation="1.12152"/>
<feComposite in2="hardAlpha" operator="out"/>
<feColorMatrix type="matrix" values="0 0 0 0 0 0 0 0 0 0 0 0 0 0 0 0 0 0 0.09 0"/>
<feBlend mode="normal" in2="effect1_backgroundBlur_2_78" result="effect2_dropShadow_2_78"/>
<feBlend mode="normal" in="SourceGraphic" in2="effect2_dropShadow_2_78" result="shape"/>
</filter>
<linearGradient id="paint0_linear_2_78" x1="2.74739" y1="10.5307" x2="26.5219" y2="52.5752" gradientUnits="userSpaceOnUse">
<stop stop-color="#52ABDD"/>
<stop offset="0.484375" stop-color="#599FD2"/>
<stop offset="0.484475" stop-color="#4489BB"/>
<stop offset="1" stop-color="#0B79B8"/>
</linearGradient>
<linearGradient id="paint1_linear_2_78" x1="23.8523" y1="8.87325" x2="23.8523" y2="40.545" gradientUnits="userSpaceOnUse">
<stop stop-color="#61BCD2" stop-opacity="0.25"/>
<stop offset="0.713542" stop-color="#5CC0EE" stop-opacity="0.5"/>
<stop offset="1" stop-color="#0081E7"/>
</linearGradient>
<linearGradient id="paint2_linear_2_78" x1="8.57779" y1="14.0751" x2="7.39921" y2="14.0751" gradientUnits="userSpaceOnUse">
<stop stop-color="#005FB8"/>
<stop offset="1" stop-color="#AADBFF" stop-opacity="0"/>
</linearGradient>
<linearGradient id="paint3_linear_2_78" x1="23.3963" y1="14.0751" x2="22.2177" y2="14.0751" gradientUnits="userSpaceOnUse">
<stop stop-color="#005FB8" stop-opacity="0"/>
<stop offset="1" stop-color="#005FB8"/>
</linearGradient>
<linearGradient id="paint4_linear_2_78" x1="15.4069" y1="9.78879" x2="15.407" y2="8.67129" gradientUnits="userSpaceOnUse">
<stop stop-color="#005FB8"/>
<stop offset="1" stop-color="#AADBFF" stop-opacity="0"/>
</linearGradient>
<linearGradient id="paint5_linear_2_78" x1="15.4069" y1="24.0135" x2="15.4069" y2="23.7662" gradientUnits="userSpaceOnUse">
<stop stop-color="#005FB8" stop-opacity="0"/>
<stop offset="1" stop-color="#005FB8"/>
</linearGradient>
<radialGradient id="paint6_radial_2_78" cx="0" cy="0" r="1" gradientUnits="userSpaceOnUse" gradientTransform="translate(8.57766 9.78884) rotate(-180) scale(1.16244 1.1175)">
<stop stop-color="#005FB8"/>
<stop offset="0.9999" stop-color="#AADBFF" stop-opacity="0.015625"/>
<stop offset="1" stop-color="#AADBFF" stop-opacity="0"/>
</radialGradient>
<radialGradient id="paint7_radial_2_78" cx="0" cy="0" r="1" gradientUnits="userSpaceOnUse" gradientTransform="translate(22.2338 9.78879) scale(1.16244 1.1175)">
<stop stop-color="#005FB8"/>
<stop offset="0.9999" stop-color="#AADBFF" stop-opacity="0.015625"/>
<stop offset="1" stop-color="#AADBFF" stop-opacity="0"/>
</radialGradient>
<radialGradient id="paint8_radial_2_78" cx="0" cy="0" r="1" gradientUnits="userSpaceOnUse" gradientTransform="translate(22.2338 23.7341) scale(1.16244 0.279376)">
<stop stop-color="#005FB8"/>
<stop offset="0.9999" stop-color="#AADBFF" stop-opacity="0.015625"/>
<stop offset="1" stop-color="#005FB8" stop-opacity="0"/>
</radialGradient>
<radialGradient id="paint9_radial_2_78" cx="0" cy="0" r="1" gradientUnits="userSpaceOnUse" gradientTransform="translate(8.57779 23.7341) rotate(180) scale(1.16244 0.279376)">
<stop stop-color="#005FB8"/>
<stop offset="0.9999" stop-color="#AADBFF" stop-opacity="0.015625"/>
<stop offset="1" stop-color="#AADBFF" stop-opacity="0"/>
</radialGradient>
<linearGradient id="paint10_linear_2_78" x1="25.4602" y1="14.12" x2="24.2817" y2="14.12" gradientUnits="userSpaceOnUse">
<stop stop-color="#005FB8"/>
<stop offset="1" stop-color="#AADBFF" stop-opacity="0"/>
</linearGradient>
<linearGradient id="paint11_linear_2_78" x1="40.2787" y1="14.12" x2="39.1001" y2="14.12" gradientUnits="userSpaceOnUse">
<stop stop-color="#005FB8" stop-opacity="0"/>
<stop offset="1" stop-color="#005FB8"/>
</linearGradient>
<linearGradient id="paint12_linear_2_78" x1="32.2893" y1="9.83371" x2="32.2894" y2="8.71621" gradientUnits="userSpaceOnUse">
<stop stop-color="#005FB8"/>
<stop offset="1" stop-color="#AADBFF" stop-opacity="0"/>
</linearGradient>
<linearGradient id="paint13_linear_2_78" x1="32.2893" y1="24.0584" x2="32.2894" y2="23.8111" gradientUnits="userSpaceOnUse">
<stop stop-color="#005FB8" stop-opacity="0"/>
<stop offset="1" stop-color="#005FB8"/>
</linearGradient>
<radialGradient id="paint14_radial_2_78" cx="0" cy="0" r="1" gradientUnits="userSpaceOnUse" gradientTransform="translate(25.4602 9.83371) rotate(-180) scale(1.16244 1.1175)">
<stop stop-color="#005FB8"/>
<stop offset="0.9999" stop-color="#AADBFF" stop-opacity="0.015625"/>
<stop offset="1" stop-color="#AADBFF" stop-opacity="0"/>
</radialGradient>
<radialGradient id="paint15_radial_2_78" cx="0" cy="0" r="1" gradientUnits="userSpaceOnUse" gradientTransform="translate(39.1163 9.83371) scale(1.16244 1.1175)">
<stop stop-color="#005FB8"/>
<stop offset="0.9999" stop-color="#AADBFF" stop-opacity="0.015625"/>
<stop offset="1" stop-color="#AADBFF" stop-opacity="0"/>
</radialGradient>
<radialGradient id="paint16_radial_2_78" cx="0" cy="0" r="1" gradientUnits="userSpaceOnUse" gradientTransform="translate(39.1163 23.7791) scale(1.16244 0.279376)">
<stop stop-color="#005FB8"/>
<stop offset="0.9999" stop-color="#AADBFF" stop-opacity="0.015625"/>
<stop offset="1" stop-color="#AADBFF" stop-opacity="0"/>
</radialGradient>
<radialGradient id="paint17_radial_2_78" cx="0" cy="0" r="1" gradientUnits="userSpaceOnUse" gradientTransform="translate(25.4602 23.7791) rotate(180) scale(1.16244 0.279376)">
<stop stop-color="#005FB8"/>
<stop offset="0.9999" stop-color="#AADBFF" stop-opacity="0.015625"/>
<stop offset="1" stop-color="#AADBFF" stop-opacity="0"/>
</radialGradient>
<linearGradient id="paint18_linear_2_78" x1="25.4602" y1="30.6058" x2="24.2817" y2="30.6058" gradientUnits="userSpaceOnUse">
<stop stop-color="#005FB8"/>
<stop offset="1" stop-color="#005FB8" stop-opacity="0"/>
</linearGradient>
<linearGradient id="paint19_linear_2_78" x1="40.2787" y1="30.6058" x2="39.1001" y2="30.6058" gradientUnits="userSpaceOnUse">
<stop stop-color="#005FB8" stop-opacity="0"/>
<stop offset="1" stop-color="#005FB8"/>
</linearGradient>
<linearGradient id="paint20_linear_2_78" x1="32.2893" y1="26.3195" x2="32.2894" y2="25.202" gradientUnits="userSpaceOnUse">
<stop stop-color="#005FB8"/>
<stop offset="1" stop-color="#005FB8" stop-opacity="0"/>
</linearGradient>
<linearGradient id="paint21_linear_2_78" x1="32.2893" y1="40.5442" x2="32.2894" y2="40.2969" gradientUnits="userSpaceOnUse">
<stop stop-color="#005FB8" stop-opacity="0"/>
<stop offset="1" stop-color="#005FB8"/>
</linearGradient>
<radialGradient id="paint22_radial_2_78" cx="0" cy="0" r="1" gradientUnits="userSpaceOnUse" gradientTransform="translate(25.4602 26.3195) rotate(-180) scale(1.16244 1.1175)">
<stop stop-color="#005FB8"/>
<stop offset="0.9999" stop-color="#AADBFF" stop-opacity="0.015625"/>
<stop offset="1" stop-color="#005FB8" stop-opacity="0"/>
</radialGradient>
<radialGradient id="paint23_radial_2_78" cx="0" cy="0" r="1" gradientUnits="userSpaceOnUse" gradientTransform="translate(39.1163 26.3195) scale(1.16244 1.1175)">
<stop stop-color="#005FB8"/>
<stop offset="0.9999" stop-color="#AADBFF" stop-opacity="0.015625"/>
<stop offset="1" stop-color="#005FB8" stop-opacity="0"/>
</radialGradient>
<radialGradient id="paint24_radial_2_78" cx="0" cy="0" r="1" gradientUnits="userSpaceOnUse" gradientTransform="translate(39.1163 40.2648) scale(1.16244 0.279376)">
<stop stop-color="#005FB8"/>
<stop offset="0.9999" stop-color="#AADBFF" stop-opacity="0.015625"/>
<stop offset="1" stop-color="#005FB8" stop-opacity="0"/>
</radialGradient>
<radialGradient id="paint25_radial_2_78" cx="0" cy="0" r="1" gradientUnits="userSpaceOnUse" gradientTransform="translate(25.4602 40.2648) rotate(180) scale(1.16244 0.279376)">
<stop stop-color="#005FB8"/>
<stop offset="0.9999" stop-color="#AADBFF" stop-opacity="0.015625"/>
<stop offset="1" stop-color="#005FB8" stop-opacity="0"/>
</radialGradient>
<linearGradient id="paint26_linear_2_78" x1="8.57779" y1="30.651" x2="7.39921" y2="30.651" gradientUnits="userSpaceOnUse">
<stop stop-color="#005FB8"/>
<stop offset="1" stop-color="#005FB8" stop-opacity="0"/>
</linearGradient>
<linearGradient id="paint27_linear_2_78" x1="23.3963" y1="30.651" x2="22.2177" y2="30.651" gradientUnits="userSpaceOnUse">
<stop stop-color="#005FB8" stop-opacity="0"/>
<stop offset="1" stop-color="#005FB8"/>
</linearGradient>
<linearGradient id="paint28_linear_2_78" x1="15.4069" y1="26.3646" x2="15.407" y2="25.2471" gradientUnits="userSpaceOnUse">
<stop stop-color="#005FB8"/>
<stop offset="1" stop-color="#005FB8" stop-opacity="0"/>
</linearGradient>
<linearGradient id="paint29_linear_2_78" x1="15.4069" y1="40.5894" x2="15.4069" y2="40.342" gradientUnits="userSpaceOnUse">
<stop stop-color="#005FB8" stop-opacity="0"/>
<stop offset="1" stop-color="#005FB8"/>
</linearGradient>
<radialGradient id="paint30_radial_2_78" cx="0" cy="0" r="1" gradientUnits="userSpaceOnUse" gradientTransform="translate(8.57766 26.3647) rotate(-180) scale(1.16244 1.1175)">
<stop stop-color="#005FB8"/>
<stop offset="0.9999" stop-color="#AADBFF" stop-opacity="0.015625"/>
<stop offset="1" stop-color="#005FB8" stop-opacity="0"/>
</radialGradient>
<radialGradient id="paint31_radial_2_78" cx="0" cy="0" r="1" gradientUnits="userSpaceOnUse" gradientTransform="translate(22.2338 26.3646) scale(1.16244 1.1175)">
<stop stop-color="#005FB8"/>
<stop offset="0.9999" stop-color="#AADBFF" stop-opacity="0.015625"/>
<stop offset="1" stop-color="#005FB8" stop-opacity="0"/>
</radialGradient>
<radialGradient id="paint32_radial_2_78" cx="0" cy="0" r="1" gradientUnits="userSpaceOnUse" gradientTransform="translate(22.2338 40.31) scale(1.16244 0.279376)">
<stop stop-color="#005FB8"/>
<stop offset="0.9999" stop-color="#AADBFF" stop-opacity="0.015625"/>
<stop offset="1" stop-color="#005FB8" stop-opacity="0"/>
</radialGradient>
<radialGradient id="paint33_radial_2_78" cx="0" cy="0" r="1" gradientUnits="userSpaceOnUse" gradientTransform="translate(8.57779 40.31) rotate(180) scale(1.16244 0.279376)">
<stop stop-color="#005FB8"/>
<stop offset="0.9999" stop-color="#AADBFF" stop-opacity="0.015625"/>
<stop offset="1" stop-color="#005FB8" stop-opacity="0"/>
</radialGradient>
<linearGradient id="paint34_linear_2_78" x1="9.61355" y1="47.0046" x2="6.62009" y2="13.4386" gradientUnits="userSpaceOnUse">
<stop stop-color="#4A50EB"/>
<stop offset="1" stop-color="#72B3FF"/>
</linearGradient>
</defs>
</svg>
